<svg id="Capa_1" data-name="Capa 1" xmlns="http://www.w3.org/2000/svg" viewBox="0 0 514.78 113.5"><defs><style>.cls-1,.cls-3{fill:#39bfc9;}.cls-2,.cls-4{fill:#fff;}.cls-3{stroke:#42bbc6;}.cls-3,.cls-4{stroke-miterlimit:10;}.cls-4{stroke:#39bfc9;}.cls-5{font-size:72px;font-family:TrebuchetMS-Bold, Trebuchet MS;font-weight:700;}.cls-6{font-size:18px;font-family:MyriadPro-Regular, Myriad Pro;letter-spacing:0.5em;}.cls-7{letter-spacing:0.5em;}.cls-8{letter-spacing:0.5em;}</style></defs><g id="Capa_2" data-name="Capa 2"><path class="cls-1" d="M59.32,225.36v45.88s.21,5,2.75,6.56,26.64,15,26.64,15l14.38,8.46H112L133.33,289l4.23,8a10.91,10.91,0,0,0,6.56,4.23h50.11l4.65-5.29c4-6,3.81-6.13,3.81-6.13l20.09-29.39s3-3.91-3.6-15l-9.09-18.39-6.34-12.9s-2.12-6-11.63-6.13S160,206.54,160,206.54h-8.45s-5.92-.11-8.88,4l-2.12,3.6L114.3,198.71s-6.66-4.86-12.69,0L67.15,218S60.38,220.92,59.32,225.36Z" transform="translate(-59.32 -196.55)"/><path class="cls-2" d="M63.76,228.32v43.56s-.1,2.32,4.44,4.44S104.78,297,104.78,297s1.11,0,1.06-5.71c0-6.35-.84-40-.84-40Z" transform="translate(-59.32 -196.55)"/><path class="cls-2" d="M110.07,251.36v45.7L131,285l-13.33-28.34s-3-5.74.64-9.73Z" transform="translate(-59.32 -196.55)"/><path class="cls-2" d="M122.12,255.81,140.52,293s.86,2.75,5.29,3.17l42.93.87L168.86,257.5Z" transform="translate(-59.32 -196.55)"/><path class="cls-2" d="M172.45,255l20.93,40.81,24.74-36.58s2.65-1.22-1.05-8.28L199.3,216.26Z" transform="translate(-59.32 -196.55)"/><path class="cls-2" d="M120.54,250.91,146,213.73a8.31,8.31,0,0,1,6.55-2.75c6.78,0,43.17,1.9,43.17,1.9l-23.29,36.05s-2.85,4-6.56,3.92Z" transform="translate(-59.32 -196.55)"/><path class="cls-2" d="M65.67,223.88l38.69,21.78s3.6,1.36,6.56,0l12.68-7.19,6.14-8.46s-16.6,2.85-14.17-8.46c0,0,4.23-8.68,18.82,1.27l4-5.24-26.86-15.06s-4.76-3.28-8.46,0Z" transform="translate(-59.32 -196.55)"/><ellipse class="cls-3" cx="29.18" cy="26.32" rx="9.73" ry="6.61"/><ellipse class="cls-4" cx="29.18" cy="26.58" rx="5.12" ry="2.22"/><ellipse class="cls-3" cx="47.47" cy="37.33" rx="10.04" ry="6.45"/><ellipse class="cls-2" cx="47.79" cy="37.18" rx="5.07" ry="1.78"/><ellipse class="cls-4" cx="65.55" cy="27.8" rx="5.07" ry="2.22"/><ellipse class="cls-3" cx="47.69" cy="16.12" rx="9.78" ry="6.88"/><ellipse class="cls-2" cx="47.79" cy="16.32" rx="5.07" ry="1.91"/><ellipse class="cls-3" cx="74.02" cy="246.03" rx="7.08" ry="8.99" transform="translate(-201.77 -88.92) rotate(-40.66)"/><ellipse class="cls-2" cx="73.57" cy="246.08" rx="1.87" ry="5.29" transform="translate(-182.35 -115.75) rotate(-33.3)"/><ellipse class="cls-1" cx="83.82" cy="263.06" rx="6.84" ry="8.78" transform="translate(-189.99 -107.34) rotate(-33.3)"/><ellipse class="cls-4" cx="83.59" cy="262.48" rx="2" ry="4.86" transform="translate(-179.36 -119.59) rotate(-30)"/><ellipse class="cls-1" cx="93.93" cy="279.96" rx="6.03" ry="9.53" transform="translate(-186.72 -112.08) rotate(-30)"/><ellipse class="cls-4" cx="93.62" cy="279.42" rx="1.87" ry="4.76" transform="translate(-157.85 -140.56) rotate(-22.17)"/><ellipse class="cls-3" cx="158.05" cy="231.47" rx="9.52" ry="6.83" transform="translate(-144.54 -104.3) rotate(-25.89)"/><ellipse class="cls-2" cx="158.01" cy="231.53" rx="5.07" ry="2" transform="translate(-144.57 -104.31) rotate(-25.89)"/><ellipse class="cls-3" cx="138.67" cy="44.64" rx="6.56" ry="9.72"/><ellipse class="cls-4" cx="139.09" cy="43.93" rx="2.22" ry="5.6"/><ellipse class="cls-3" cx="136.67" cy="74.59" rx="6.56" ry="9.46"/><ellipse class="cls-3" cx="171.88" cy="287.85" rx="6.32" ry="9.72" transform="translate(-220.64 54.19) rotate(-52.8)"/><ellipse class="cls-4" cx="136.87" cy="74.37" rx="2.44" ry="5.39"/><ellipse class="cls-1" cx="155.08" cy="277.5" rx="6.83" ry="9.62" transform="translate(-222.05 88.2) rotate(-62.11)"/><ellipse class="cls-1" cx="137.81" cy="266.76" rx="6.18" ry="9.62" transform="translate(-221.75 67.22) rotate(-62.11)"/><ellipse class="cls-4" cx="137.87" cy="266.74" rx="2.64" ry="5.52" transform="translate(-219.83 36.6) rotate(-56.24)"/><ellipse class="cls-4" cx="154.46" cy="277.17" rx="2.54" ry="5.28" transform="translate(-221.13 55.03) rotate(-56.24)"/><ellipse class="cls-4" cx="170.88" cy="287.85" rx="2.54" ry="5.28" transform="translate(-222.71 73.43) rotate(-56.24)"/><text class="cls-5" transform="translate(176.71 68.75)">Fizz Buzz</text><text class="cls-6" transform="translate(181.96 98.29)">A NUMBER G<tspan class="cls-7" x="186.53" y="0">A</tspan><tspan class="cls-8" x="206.48" y="0">ME</tspan></text></g></svg>